<svg width="40" height="40" viewBox="0 0 40 40" fill="none" xmlns="http://www.w3.org/2000/svg">
<path d="M35.7143 0H4.28571C1.91875 0 0 1.91875 0 4.28571V35.7143C0 38.0812 1.91875 40 4.28571 40H35.7143C38.0812 40 40 38.0812 40 35.7143V4.28571C40 1.91875 38.0812 0 35.7143 0ZM15.9033 20.545C7.80616 14.6685 7.88866 14.6537 5.71429 12.9613V10.7143C5.71429 9.5308 6.67366 8.57143 7.85714 8.57143H32.1429C33.3263 8.57143 34.2857 9.5308 34.2857 10.7143V12.9613C32.1097 14.655 32.1934 14.6688 24.0967 20.5451C23.1592 21.2286 21.2938 22.8772 20 22.8571C18.7051 22.8765 16.8422 21.2296 15.9033 20.545ZM34.2857 16.5871V29.2857C34.2857 30.4692 33.3263 31.4286 32.1429 31.4286H7.85714C6.67366 31.4286 5.71429 30.4692 5.71429 29.2857V16.5871C6.96054 17.5508 8.69009 18.8403 14.2235 22.8562C15.4879 23.7795 17.6141 25.7262 19.9997 25.7142C22.4004 25.7262 24.5566 23.7463 25.7783 22.8548C31.3103 18.8401 33.0395 17.5507 34.2857 16.5871Z" fill="white"/>
</svg>
