<svg width="77" height="110" viewBox="0 0 77 110" fill="none" xmlns="http://www.w3.org/2000/svg">
<path d="M38.499 0C19.9026 0.0201953 4.83273 14.3726 4.81152 32.0833V52.7083C4.81152 53.9739 5.88892 55 7.21785 55H16.8427C18.1716 55 19.249 53.9739 19.249 52.7083V32.0833C19.249 21.9581 27.8676 13.75 38.499 13.75C49.1304 13.75 57.7489 21.9581 57.7489 32.0833V52.7083C57.7489 53.9739 58.8263 55 60.1553 55H69.7803C71.1093 55 72.1867 53.9739 72.1867 52.7083V32.0833C72.1652 14.3726 57.0954 0.0201953 38.499 0Z" fill="#455A64"/>
<path d="M69.7815 50.4167H7.21876C3.23197 50.4167 0 53.4948 0 57.2917V98.5417C0 104.87 5.38655 110 12.0312 110H64.9688C71.6135 110 77 104.87 77 98.5417V57.2917C77.0002 53.4948 73.7683 50.4167 69.7815 50.4167Z" fill="#FFC107"/>
<path d="M45.0018 80.0707C47 78.349 48.1356 75.8996 48.125 73.3332C48.125 68.2707 43.8156 64.1665 38.4999 64.1665C33.1842 64.1665 28.8749 68.2707 28.8749 73.3332C28.8645 75.8996 29.9998 78.349 31.9981 80.0707L28.9951 88.6507C28.575 89.8515 29.2568 91.1492 30.5176 91.5492C30.7637 91.6272 31.0215 91.6669 31.281 91.6667H45.7185C47.0474 91.6682 48.1262 90.6436 48.1277 89.378C48.128 89.1309 48.0865 88.8854 48.0043 88.651L45.0018 80.0707Z" fill="#455A64"/>
</svg>
